<?xml version="1.0" encoding="UTF-8" standalone="no"?><!-- Generator: Gravit.io --><svg xmlns="http://www.w3.org/2000/svg" xmlns:xlink="http://www.w3.org/1999/xlink" style="isolation:isolate" viewBox="0 0 500 150" width="500pt" height="150pt"><defs><clipPath id="_clipPath_4RJg0Eem5Xf0dmX1dlRVisy8SqjYtbLi"><rect width="500" height="150"/></clipPath></defs><g clip-path="url(#_clipPath_4RJg0Eem5Xf0dmX1dlRVisy8SqjYtbLi)"><rect width="500" height="150" style="fill:rgb(0,0,0)" fill-opacity="0"/><g><path d=" M 40.576 54.921 C 40.576 45.963 47.838 38.701 56.796 38.701 C 65.753 38.701 73.015 45.963 73.015 54.921 C 73.015 63.893 65.743 71.14 56.796 71.14 C 47.848 71.14 40.576 63.893 40.576 54.921 L 40.576 54.921 Z " fill="none"/><g clip-path="url(#_clipPath_6G3BbWzGeFe8OapTagYjLKZL9SnYSdrb)"><text transform="matrix(1,0,0,1,86.356,111.79)" style="font-family:'Pacifico';font-weight:400;font-size:60px;font-style:normal;fill:#000000;stroke:none;">Makers BnB</text></g><defs><clipPath id="_clipPath_6G3BbWzGeFe8OapTagYjLKZL9SnYSdrb"><rect x="0" y="0" width="386" height="88" transform="matrix(1,0,0,1,86.296,33.61)"/></clipPath></defs><path d=" M 85.887 57.481 C 85.887 41.406 72.87 28.39 56.796 28.39 C 40.721 28.39 27.704 41.406 27.704 57.481 C 27.704 73.555 56.796 121.61 56.796 121.61 C 56.796 121.61 85.887 73.527 85.887 57.481 L 85.887 57.481 Z  M 38.589 58.519 C 38.589 48.464 46.74 40.312 56.796 40.312 C 66.851 40.312 75.002 48.464 75.002 58.519 C 75.002 68.59 66.839 76.725 56.796 76.725 C 51.774 76.725 47.222 74.691 43.926 71.399 C 40.63 68.106 38.589 63.554 38.589 58.519 L 38.589 58.519 Z " fill="rgb(13,110,253)"/></g></g></svg>